<?xml version="1.0" standalone="no"?>
<!DOCTYPE svg PUBLIC "-//W3C//DTD SVG 20010904//EN"
 "http://www.w3.org/TR/2001/REC-SVG-20010904/DTD/svg10.dtd">
<svg version="1.0" xmlns="http://www.w3.org/2000/svg"
 width="96.000000pt" height="96.000000pt" viewBox="0 0 96.000000 96.000000"
 preserveAspectRatio="xMidYMid meet">

<g transform="translate(0.000000,96.000000) scale(0.100000,-0.100000)"
fill="#000000" stroke="none">
<path d="M495 913 c-47 -24 -103 -83 -137 -142 -17 -29 -59 -85 -94 -125 -72
-80 -107 -145 -122 -226 -47 -258 211 -440 454 -320 137 67 206 209 190 390
-4 41 -9 118 -12 170 -8 147 -33 205 -105 249 -42 26 -130 28 -174 4z m156
-50 c56 -33 66 -76 74 -303 6 -196 6 -208 -16 -264 -60 -162 -252 -233 -401
-149 -78 44 -112 103 -117 204 -3 70 0 85 26 141 17 36 58 93 95 134 36 39 80
100 99 134 56 106 160 150 240 103z"/>
<path d="M418 581 c-53 -34 -91 -85 -114 -154 -64 -193 196 -278 285 -94 36
75 21 198 -31 254 -31 33 -83 30 -140 -6z m129 -68 c44 -108 -17 -233 -115
-233 -42 0 -92 46 -92 85 0 63 70 162 135 190 36 16 51 7 72 -42z"/>
</g>
</svg>
