<?xml version="1.0" standalone="no"?>
<!DOCTYPE svg PUBLIC "-//W3C//DTD SVG 20010904//EN"
 "http://www.w3.org/TR/2001/REC-SVG-20010904/DTD/svg10.dtd">
<svg version="1.0" xmlns="http://www.w3.org/2000/svg"
 width="96.000000pt" height="96.000000pt" viewBox="0 0 96.000000 96.000000"
 preserveAspectRatio="xMidYMid meet">

<g transform="translate(0.000000,96.000000) scale(0.100000,-0.100000)"
fill="#000000" stroke="none">
<path d="M627 906 c-62 -23 -96 -56 -132 -130 l-23 -48 -22 43 c-22 43 -77
109 -91 109 -4 0 -15 -7 -24 -16 -14 -15 -13 -19 16 -52 30 -34 96 -159 88
-167 -2 -2 -27 1 -55 7 -102 20 -209 -37 -259 -137 -31 -63 -28 -193 6 -265
35 -74 101 -145 163 -177 47 -25 61 -27 176 -27 112 -1 130 1 173 23 116 57
196 178 205 309 4 66 2 78 -27 136 -35 72 -83 115 -148 131 l-43 11 42 30 c55
39 99 118 101 182 l2 47 -55 2 c-30 2 -72 -4 -93 -11z m93 -50 c0 -27 -21 -71
-48 -99 -25 -27 -130 -87 -151 -87 -16 0 15 87 44 127 42 54 155 97 155 59z
m-300 -266 l59 -20 41 21 c81 43 193 8 244 -75 76 -122 27 -292 -111 -383 -56
-38 -58 -38 -162 -40 -132 -2 -170 9 -232 65 -69 62 -111 151 -110 233 1 75
29 139 76 175 62 47 109 53 195 24z"/>
</g>
</svg>
