<?xml version="1.0" standalone="no"?>
<!DOCTYPE svg PUBLIC "-//W3C//DTD SVG 20010904//EN"
 "http://www.w3.org/TR/2001/REC-SVG-20010904/DTD/svg10.dtd">
<svg version="1.0" xmlns="http://www.w3.org/2000/svg"
 width="96.000000pt" height="96.000000pt" viewBox="0 0 96.000000 96.000000"
 preserveAspectRatio="xMidYMid meet">

<g transform="translate(0.000000,96.000000) scale(0.100000,-0.100000)"
fill="#000000" stroke="none">
<path d="M589 910 c-10 -5 -24 -40 -34 -80 -15 -62 -19 -69 -35 -60 -29 16
-65 12 -93 -10 -14 -11 -80 -83 -146 -160 -131 -153 -140 -173 -100 -225 25
-31 26 -29 -54 -71 -56 -29 -64 -43 -47 -84 25 -61 183 -180 238 -180 27 0 37
16 55 85 10 41 19 59 28 56 39 -11 61 -13 83 -7 15 4 74 65 155 162 110 130
131 161 131 188 0 20 -8 40 -20 51 -11 10 -20 21 -20 25 0 3 27 19 60 35 82
39 96 56 80 94 -36 88 -229 212 -281 181z m96 -68 c46 -23 91 -60 119 -97 l26
-33 -64 -36 c-35 -20 -70 -36 -78 -36 -7 0 -35 19 -61 43 l-48 42 17 73 c20
79 20 79 89 44z m-75 -207 c73 -60 110 -97 110 -110 0 -19 -226 -291 -254
-307 -15 -9 -39 8 -164 116 -51 43 -92 86 -92 95 0 9 28 48 61 86 163 187 192
216 210 213 10 -2 68 -43 129 -93z m-306 -367 l46 -43 -17 -67 c-9 -38 -21
-68 -27 -68 -31 0 -199 141 -185 155 12 11 115 65 126 65 6 0 32 -19 57 -42z"/>
</g>
</svg>
