<?xml version="1.0" standalone="no"?>
<!DOCTYPE svg PUBLIC "-//W3C//DTD SVG 20010904//EN"
 "http://www.w3.org/TR/2001/REC-SVG-20010904/DTD/svg10.dtd">
<svg version="1.0" xmlns="http://www.w3.org/2000/svg"
 width="96.000000pt" height="96.000000pt" viewBox="0 0 96.000000 96.000000"
 preserveAspectRatio="xMidYMid meet">

<g transform="translate(0.000000,96.000000) scale(0.100000,-0.100000)"
fill="#000000" stroke="none">
<path d="M422 918 c-48 -10 -108 -63 -118 -103 -5 -22 -12 -25 -51 -25 -102 0
-183 -92 -183 -210 0 -90 66 -177 150 -200 21 -6 46 -20 54 -32 24 -35 54
-137 61 -210 9 -91 20 -98 147 -98 87 0 100 2 122 22 20 20 25 35 30 101 8
118 49 200 106 212 84 18 151 112 152 209 1 112 -68 196 -168 204 -47 4 -57 8
-69 31 -15 29 -60 73 -90 89 -33 16 -97 21 -143 10z m105 -48 c23 0 82 -61 93
-95 11 -33 12 -34 69 -33 97 2 155 -57 155 -157 0 -94 -56 -155 -148 -163 -43
-3 -57 0 -91 23 -35 24 -43 26 -70 16 -39 -14 -76 -14 -109 -1 -21 8 -33 5
-62 -15 -103 -70 -244 11 -244 140 0 94 62 158 157 159 56 1 58 2 66 33 18 60
94 109 152 97 11 -2 25 -4 32 -4z m-11 -489 c-16 -56 -17 -99 -2 -104 19 -8
29 8 45 68 6 27 14 51 16 53 4 4 65 -27 65 -34 0 -2 -9 -23 -20 -45 -12 -22
-26 -77 -32 -122 -6 -45 -12 -88 -14 -94 -2 -9 -29 -13 -88 -13 -97 0 -101 3
-105 80 -2 55 -27 146 -48 178 -8 13 -13 25 -11 26 2 1 18 7 36 13 31 11 34
10 43 -15 6 -15 13 -41 16 -59 6 -35 26 -49 41 -30 10 11 3 72 -12 107 -5 13
1 15 34 12 32 -3 40 -8 36 -21z"/>
</g>
</svg>
